<svg width="150" height="150" viewBox="0 0 150 150" fill="none" xmlns="http://www.w3.org/2000/svg">
<rect x="31.2599" y="79.328" width="87.9462" height="5.1985" fill="#FF7F50" stroke="#FF7F50"/>
<rect x="37.1461" y="74.1626" width="76.1739" height="4.16542" fill="#FF7F50" stroke="#FF7F50"/>
<rect x="43.0322" y="44.7196" width="10.1183" height="28.4429" fill="#FF7F50" stroke="#FF7F50"/>
<rect x="70.5009" y="44.7196" width="10.1183" height="28.4429" fill="#FF7F50" stroke="#FF7F50"/>
<rect x="96.6616" y="44.7196" width="10.1183" height="28.4429" fill="#FF7F50" stroke="#FF7F50"/>
<path d="M119.939 49.6599H29.8726L74.9058 20.5369L119.939 49.6599Z" fill="#FF7F50" stroke="#FF7F50"/>
<rect x="40.4162" y="50.4016" width="14.6964" height="3.13233" fill="#FF7F50" stroke="#FF7F50"/>
<rect x="67.8849" y="50.4016" width="14.6964" height="3.13233" fill="#FF7F50" stroke="#FF7F50"/>
<rect x="94.6995" y="50.4016" width="14.6964" height="3.13233" fill="#FF7F50" stroke="#FF7F50"/>
<rect x="24.0658" y="85.5265" width="99.7185" height="6.74813" fill="#FF7F50" stroke="#FF7F50"/>
<path d="M73.5982 33.8723C76.1297 33.8723 78.3992 34.5721 80.022 35.677C81.6474 36.7837 82.5816 38.2606 82.5816 39.8293C82.5815 41.3979 81.6473 42.8751 80.022 43.9817C78.3992 45.0865 76.1296 45.7854 73.5982 45.7854C71.0665 45.7854 68.7962 45.0866 67.1734 43.9817C65.5481 42.8751 64.6149 41.3979 64.6148 39.8293C64.6148 38.2608 65.5482 36.7837 67.1734 35.677C68.7962 34.5721 71.0665 33.8723 73.5982 33.8723Z" fill="#554D4D" fill-opacity="0.46" stroke="#FF7F50"/>
<circle cx="75" cy="75" r="73.5" stroke="#FF7F50" stroke-width="3"/>
<mask id="path-13-outside-1_2015_30" maskUnits="userSpaceOnUse" x="16" y="101" width="123" height="15" fill="black">
<rect fill="white" x="16" y="101" width="123" height="15"/>
<path d="M17.1477 114V102.364H19.2557V112.233H24.3807V114H17.1477ZM37.7548 108.182C37.7548 109.436 37.52 110.509 37.0503 111.403C36.5844 112.294 35.948 112.975 35.1412 113.449C34.3382 113.922 33.4272 114.159 32.4082 114.159C31.3893 114.159 30.4764 113.922 29.6696 113.449C28.8666 112.972 28.2302 112.288 27.7605 111.398C27.2946 110.504 27.0616 109.432 27.0616 108.182C27.0616 106.928 27.2946 105.856 27.7605 104.966C28.2302 104.072 28.8666 103.388 29.6696 102.915C30.4764 102.441 31.3893 102.205 32.4082 102.205C33.4272 102.205 34.3382 102.441 35.1412 102.915C35.948 103.388 36.5844 104.072 37.0503 104.966C37.52 105.856 37.7548 106.928 37.7548 108.182ZM35.6355 108.182C35.6355 107.299 35.4973 106.555 35.2207 105.949C34.948 105.339 34.5692 104.879 34.0844 104.568C33.5995 104.254 33.0408 104.097 32.4082 104.097C31.7757 104.097 31.217 104.254 30.7321 104.568C30.2473 104.879 29.8666 105.339 29.5901 105.949C29.3173 106.555 29.181 107.299 29.181 108.182C29.181 109.064 29.3173 109.811 29.5901 110.42C29.8666 111.027 30.2473 111.487 30.7321 111.801C31.217 112.112 31.7757 112.267 32.4082 112.267C33.0408 112.267 33.5995 112.112 34.0844 111.801C34.5692 111.487 34.948 111.027 35.2207 110.42C35.4973 109.811 35.6355 109.064 35.6355 108.182ZM49.1432 106.08C49.0485 105.773 48.9178 105.498 48.7511 105.256C48.5883 105.009 48.3913 104.799 48.1602 104.625C47.933 104.451 47.6716 104.32 47.3761 104.233C47.0807 104.142 46.7587 104.097 46.4102 104.097C45.7852 104.097 45.2284 104.254 44.7398 104.568C44.2511 104.883 43.8667 105.345 43.5864 105.955C43.3098 106.561 43.1716 107.299 43.1716 108.17C43.1716 109.049 43.3098 109.794 43.5864 110.403C43.8629 111.013 44.2473 111.477 44.7398 111.795C45.2322 112.11 45.8042 112.267 46.4557 112.267C47.0466 112.267 47.558 112.153 47.9898 111.926C48.4254 111.699 48.7606 111.377 48.9955 110.96C49.2303 110.54 49.3477 110.047 49.3477 109.483L49.825 109.557H46.6659V107.909H51.3875V109.307C51.3875 110.303 51.1754 111.165 50.7511 111.892C50.3269 112.619 49.7436 113.18 49.0011 113.574C48.2587 113.964 47.4064 114.159 46.4443 114.159C45.3723 114.159 44.4311 113.919 43.6205 113.438C42.8136 112.953 42.183 112.265 41.7284 111.375C41.2777 110.481 41.0523 109.42 41.0523 108.193C41.0523 107.254 41.1848 106.415 41.45 105.676C41.7189 104.938 42.0939 104.311 42.575 103.795C43.0561 103.277 43.6205 102.883 44.2682 102.614C44.9159 102.341 45.6205 102.205 46.3818 102.205C47.0258 102.205 47.6261 102.299 48.183 102.489C48.7398 102.674 49.2341 102.939 49.6659 103.284C50.1015 103.629 50.4595 104.038 50.7398 104.511C51.0201 104.985 51.2038 105.508 51.2909 106.08H49.1432ZM65.4236 108.182C65.4236 109.436 65.1887 110.509 64.719 111.403C64.2531 112.294 63.6168 112.975 62.8099 113.449C62.0069 113.922 61.0959 114.159 60.077 114.159C59.058 114.159 58.1452 113.922 57.3384 113.449C56.5353 112.972 55.899 112.288 55.4293 111.398C54.9634 110.504 54.7304 109.432 54.7304 108.182C54.7304 106.928 54.9634 105.856 55.4293 104.966C55.899 104.072 56.5353 103.388 57.3384 102.915C58.1452 102.441 59.058 102.205 60.077 102.205C61.0959 102.205 62.0069 102.441 62.8099 102.915C63.6168 103.388 64.2531 104.072 64.719 104.966C65.1887 105.856 65.4236 106.928 65.4236 108.182ZM63.3043 108.182C63.3043 107.299 63.166 106.555 62.8895 105.949C62.6168 105.339 62.238 104.879 61.7531 104.568C61.2683 104.254 60.7096 104.097 60.077 104.097C59.4444 104.097 58.8857 104.254 58.4009 104.568C57.916 104.879 57.5353 105.339 57.2588 105.949C56.9861 106.555 56.8497 107.299 56.8497 108.182C56.8497 109.064 56.9861 109.811 57.2588 110.42C57.5353 111.027 57.916 111.487 58.4009 111.801C58.8857 112.112 59.4444 112.267 60.077 112.267C60.7096 112.267 61.2683 112.112 61.7531 111.801C62.238 111.487 62.6168 111.027 62.8895 110.42C63.166 109.811 63.3043 109.064 63.3043 108.182ZM74.5852 114V102.364H79.0398C79.8807 102.364 80.5795 102.496 81.1364 102.761C81.697 103.023 82.1155 103.381 82.392 103.835C82.6723 104.29 82.8125 104.805 82.8125 105.381C82.8125 105.854 82.7216 106.259 82.5398 106.597C82.358 106.93 82.1136 107.201 81.8068 107.409C81.5 107.617 81.1572 107.767 80.7784 107.858V107.972C81.1913 107.994 81.5871 108.121 81.9659 108.352C82.3485 108.58 82.661 108.902 82.9034 109.318C83.1458 109.735 83.267 110.239 83.267 110.83C83.267 111.432 83.1212 111.973 82.8295 112.455C82.5379 112.932 82.0985 113.309 81.5114 113.585C80.9242 113.862 80.1856 114 79.2955 114H74.5852ZM76.6932 112.239H78.9602C79.7254 112.239 80.2765 112.093 80.6136 111.801C80.9545 111.506 81.125 111.127 81.125 110.665C81.125 110.32 81.0398 110.009 80.8693 109.733C80.6989 109.453 80.4564 109.233 80.142 109.074C79.8277 108.911 79.4527 108.83 79.017 108.83H76.6932V112.239ZM76.6932 107.312H78.7784C79.142 107.312 79.4697 107.246 79.7614 107.114C80.053 106.977 80.2822 106.786 80.4489 106.54C80.6193 106.29 80.7045 105.994 80.7045 105.653C80.7045 105.203 80.5455 104.831 80.2273 104.54C79.9129 104.248 79.4451 104.102 78.8239 104.102H76.6932V107.312ZM88.1952 114H85.9452L90.0418 102.364H92.644L96.7463 114H94.4963L91.3884 104.75H91.2974L88.1952 114ZM88.269 109.438H94.4054V111.131H88.269V109.438ZM109.441 102.364V114H107.566L102.084 106.074H101.987V114H99.879V102.364H101.765L107.243 110.295H107.345V102.364H109.441ZM123.299 106.29H121.174C121.113 105.941 121.001 105.633 120.838 105.364C120.675 105.091 120.473 104.86 120.23 104.67C119.988 104.481 119.711 104.339 119.401 104.244C119.094 104.146 118.763 104.097 118.407 104.097C117.774 104.097 117.213 104.256 116.725 104.574C116.236 104.888 115.854 105.35 115.577 105.96C115.3 106.566 115.162 107.307 115.162 108.182C115.162 109.072 115.3 109.822 115.577 110.432C115.857 111.038 116.24 111.496 116.725 111.807C117.213 112.114 117.772 112.267 118.401 112.267C118.749 112.267 119.075 112.222 119.378 112.131C119.685 112.036 119.96 111.898 120.202 111.716C120.448 111.534 120.655 111.311 120.821 111.045C120.992 110.78 121.109 110.477 121.174 110.136L123.299 110.148C123.219 110.701 123.047 111.22 122.782 111.705C122.52 112.189 122.177 112.617 121.753 112.989C121.329 113.356 120.833 113.644 120.264 113.852C119.696 114.057 119.066 114.159 118.372 114.159C117.35 114.159 116.437 113.922 115.634 113.449C114.831 112.975 114.198 112.292 113.736 111.398C113.274 110.504 113.043 109.432 113.043 108.182C113.043 106.928 113.276 105.856 113.742 104.966C114.208 104.072 114.842 103.388 115.645 102.915C116.448 102.441 117.357 102.205 118.372 102.205C119.02 102.205 119.622 102.295 120.179 102.477C120.736 102.659 121.232 102.926 121.668 103.278C122.104 103.627 122.461 104.055 122.742 104.562C123.026 105.066 123.211 105.642 123.299 106.29ZM137.227 108.182C137.227 109.436 136.992 110.509 136.522 111.403C136.056 112.294 135.42 112.975 134.613 113.449C133.81 113.922 132.899 114.159 131.88 114.159C130.861 114.159 129.948 113.922 129.141 113.449C128.338 112.972 127.702 112.288 127.232 111.398C126.766 110.504 126.534 109.432 126.534 108.182C126.534 106.928 126.766 105.856 127.232 104.966C127.702 104.072 128.338 103.388 129.141 102.915C129.948 102.441 130.861 102.205 131.88 102.205C132.899 102.205 133.81 102.441 134.613 102.915C135.42 103.388 136.056 104.072 136.522 104.966C136.992 105.856 137.227 106.928 137.227 108.182ZM135.107 108.182C135.107 107.299 134.969 106.555 134.693 105.949C134.42 105.339 134.041 104.879 133.556 104.568C133.071 104.254 132.513 104.097 131.88 104.097C131.248 104.097 130.689 104.254 130.204 104.568C129.719 104.879 129.338 105.339 129.062 105.949C128.789 106.555 128.653 107.299 128.653 108.182C128.653 109.064 128.789 109.811 129.062 110.42C129.338 111.027 129.719 111.487 130.204 111.801C130.689 112.112 131.248 112.267 131.88 112.267C132.513 112.267 133.071 112.112 133.556 111.801C134.041 111.487 134.42 111.027 134.693 110.42C134.969 109.811 135.107 109.064 135.107 108.182Z"/>
</mask>
<path d="M17.1477 114V102.364H19.2557V112.233H24.3807V114H17.1477ZM37.7548 108.182C37.7548 109.436 37.52 110.509 37.0503 111.403C36.5844 112.294 35.948 112.975 35.1412 113.449C34.3382 113.922 33.4272 114.159 32.4082 114.159C31.3893 114.159 30.4764 113.922 29.6696 113.449C28.8666 112.972 28.2302 112.288 27.7605 111.398C27.2946 110.504 27.0616 109.432 27.0616 108.182C27.0616 106.928 27.2946 105.856 27.7605 104.966C28.2302 104.072 28.8666 103.388 29.6696 102.915C30.4764 102.441 31.3893 102.205 32.4082 102.205C33.4272 102.205 34.3382 102.441 35.1412 102.915C35.948 103.388 36.5844 104.072 37.0503 104.966C37.52 105.856 37.7548 106.928 37.7548 108.182ZM35.6355 108.182C35.6355 107.299 35.4973 106.555 35.2207 105.949C34.948 105.339 34.5692 104.879 34.0844 104.568C33.5995 104.254 33.0408 104.097 32.4082 104.097C31.7757 104.097 31.217 104.254 30.7321 104.568C30.2473 104.879 29.8666 105.339 29.5901 105.949C29.3173 106.555 29.181 107.299 29.181 108.182C29.181 109.064 29.3173 109.811 29.5901 110.42C29.8666 111.027 30.2473 111.487 30.7321 111.801C31.217 112.112 31.7757 112.267 32.4082 112.267C33.0408 112.267 33.5995 112.112 34.0844 111.801C34.5692 111.487 34.948 111.027 35.2207 110.42C35.4973 109.811 35.6355 109.064 35.6355 108.182ZM49.1432 106.08C49.0485 105.773 48.9178 105.498 48.7511 105.256C48.5883 105.009 48.3913 104.799 48.1602 104.625C47.933 104.451 47.6716 104.32 47.3761 104.233C47.0807 104.142 46.7587 104.097 46.4102 104.097C45.7852 104.097 45.2284 104.254 44.7398 104.568C44.2511 104.883 43.8667 105.345 43.5864 105.955C43.3098 106.561 43.1716 107.299 43.1716 108.17C43.1716 109.049 43.3098 109.794 43.5864 110.403C43.8629 111.013 44.2473 111.477 44.7398 111.795C45.2322 112.11 45.8042 112.267 46.4557 112.267C47.0466 112.267 47.558 112.153 47.9898 111.926C48.4254 111.699 48.7606 111.377 48.9955 110.96C49.2303 110.54 49.3477 110.047 49.3477 109.483L49.825 109.557H46.6659V107.909H51.3875V109.307C51.3875 110.303 51.1754 111.165 50.7511 111.892C50.3269 112.619 49.7436 113.18 49.0011 113.574C48.2587 113.964 47.4064 114.159 46.4443 114.159C45.3723 114.159 44.4311 113.919 43.6205 113.438C42.8136 112.953 42.183 112.265 41.7284 111.375C41.2777 110.481 41.0523 109.42 41.0523 108.193C41.0523 107.254 41.1848 106.415 41.45 105.676C41.7189 104.938 42.0939 104.311 42.575 103.795C43.0561 103.277 43.6205 102.883 44.2682 102.614C44.9159 102.341 45.6205 102.205 46.3818 102.205C47.0258 102.205 47.6261 102.299 48.183 102.489C48.7398 102.674 49.2341 102.939 49.6659 103.284C50.1015 103.629 50.4595 104.038 50.7398 104.511C51.0201 104.985 51.2038 105.508 51.2909 106.08H49.1432ZM65.4236 108.182C65.4236 109.436 65.1887 110.509 64.719 111.403C64.2531 112.294 63.6168 112.975 62.8099 113.449C62.0069 113.922 61.0959 114.159 60.077 114.159C59.058 114.159 58.1452 113.922 57.3384 113.449C56.5353 112.972 55.899 112.288 55.4293 111.398C54.9634 110.504 54.7304 109.432 54.7304 108.182C54.7304 106.928 54.9634 105.856 55.4293 104.966C55.899 104.072 56.5353 103.388 57.3384 102.915C58.1452 102.441 59.058 102.205 60.077 102.205C61.0959 102.205 62.0069 102.441 62.8099 102.915C63.6168 103.388 64.2531 104.072 64.719 104.966C65.1887 105.856 65.4236 106.928 65.4236 108.182ZM63.3043 108.182C63.3043 107.299 63.166 106.555 62.8895 105.949C62.6168 105.339 62.238 104.879 61.7531 104.568C61.2683 104.254 60.7096 104.097 60.077 104.097C59.4444 104.097 58.8857 104.254 58.4009 104.568C57.916 104.879 57.5353 105.339 57.2588 105.949C56.9861 106.555 56.8497 107.299 56.8497 108.182C56.8497 109.064 56.9861 109.811 57.2588 110.42C57.5353 111.027 57.916 111.487 58.4009 111.801C58.8857 112.112 59.4444 112.267 60.077 112.267C60.7096 112.267 61.2683 112.112 61.7531 111.801C62.238 111.487 62.6168 111.027 62.8895 110.42C63.166 109.811 63.3043 109.064 63.3043 108.182ZM74.5852 114V102.364H79.0398C79.8807 102.364 80.5795 102.496 81.1364 102.761C81.697 103.023 82.1155 103.381 82.392 103.835C82.6723 104.29 82.8125 104.805 82.8125 105.381C82.8125 105.854 82.7216 106.259 82.5398 106.597C82.358 106.93 82.1136 107.201 81.8068 107.409C81.5 107.617 81.1572 107.767 80.7784 107.858V107.972C81.1913 107.994 81.5871 108.121 81.9659 108.352C82.3485 108.58 82.661 108.902 82.9034 109.318C83.1458 109.735 83.267 110.239 83.267 110.83C83.267 111.432 83.1212 111.973 82.8295 112.455C82.5379 112.932 82.0985 113.309 81.5114 113.585C80.9242 113.862 80.1856 114 79.2955 114H74.5852ZM76.6932 112.239H78.9602C79.7254 112.239 80.2765 112.093 80.6136 111.801C80.9545 111.506 81.125 111.127 81.125 110.665C81.125 110.32 81.0398 110.009 80.8693 109.733C80.6989 109.453 80.4564 109.233 80.142 109.074C79.8277 108.911 79.4527 108.83 79.017 108.83H76.6932V112.239ZM76.6932 107.312H78.7784C79.142 107.312 79.4697 107.246 79.7614 107.114C80.053 106.977 80.2822 106.786 80.4489 106.54C80.6193 106.29 80.7045 105.994 80.7045 105.653C80.7045 105.203 80.5455 104.831 80.2273 104.54C79.9129 104.248 79.4451 104.102 78.8239 104.102H76.6932V107.312ZM88.1952 114H85.9452L90.0418 102.364H92.644L96.7463 114H94.4963L91.3884 104.75H91.2974L88.1952 114ZM88.269 109.438H94.4054V111.131H88.269V109.438ZM109.441 102.364V114H107.566L102.084 106.074H101.987V114H99.879V102.364H101.765L107.243 110.295H107.345V102.364H109.441ZM123.299 106.29H121.174C121.113 105.941 121.001 105.633 120.838 105.364C120.675 105.091 120.473 104.86 120.23 104.67C119.988 104.481 119.711 104.339 119.401 104.244C119.094 104.146 118.763 104.097 118.407 104.097C117.774 104.097 117.213 104.256 116.725 104.574C116.236 104.888 115.854 105.35 115.577 105.96C115.3 106.566 115.162 107.307 115.162 108.182C115.162 109.072 115.3 109.822 115.577 110.432C115.857 111.038 116.24 111.496 116.725 111.807C117.213 112.114 117.772 112.267 118.401 112.267C118.749 112.267 119.075 112.222 119.378 112.131C119.685 112.036 119.96 111.898 120.202 111.716C120.448 111.534 120.655 111.311 120.821 111.045C120.992 110.78 121.109 110.477 121.174 110.136L123.299 110.148C123.219 110.701 123.047 111.22 122.782 111.705C122.52 112.189 122.177 112.617 121.753 112.989C121.329 113.356 120.833 113.644 120.264 113.852C119.696 114.057 119.066 114.159 118.372 114.159C117.35 114.159 116.437 113.922 115.634 113.449C114.831 112.975 114.198 112.292 113.736 111.398C113.274 110.504 113.043 109.432 113.043 108.182C113.043 106.928 113.276 105.856 113.742 104.966C114.208 104.072 114.842 103.388 115.645 102.915C116.448 102.441 117.357 102.205 118.372 102.205C119.02 102.205 119.622 102.295 120.179 102.477C120.736 102.659 121.232 102.926 121.668 103.278C122.104 103.627 122.461 104.055 122.742 104.562C123.026 105.066 123.211 105.642 123.299 106.29ZM137.227 108.182C137.227 109.436 136.992 110.509 136.522 111.403C136.056 112.294 135.42 112.975 134.613 113.449C133.81 113.922 132.899 114.159 131.88 114.159C130.861 114.159 129.948 113.922 129.141 113.449C128.338 112.972 127.702 112.288 127.232 111.398C126.766 110.504 126.534 109.432 126.534 108.182C126.534 106.928 126.766 105.856 127.232 104.966C127.702 104.072 128.338 103.388 129.141 102.915C129.948 102.441 130.861 102.205 131.88 102.205C132.899 102.205 133.81 102.441 134.613 102.915C135.42 103.388 136.056 104.072 136.522 104.966C136.992 105.856 137.227 106.928 137.227 108.182ZM135.107 108.182C135.107 107.299 134.969 106.555 134.693 105.949C134.42 105.339 134.041 104.879 133.556 104.568C133.071 104.254 132.513 104.097 131.88 104.097C131.248 104.097 130.689 104.254 130.204 104.568C129.719 104.879 129.338 105.339 129.062 105.949C128.789 106.555 128.653 107.299 128.653 108.182C128.653 109.064 128.789 109.811 129.062 110.42C129.338 111.027 129.719 111.487 130.204 111.801C130.689 112.112 131.248 112.267 131.88 112.267C132.513 112.267 133.071 112.112 133.556 111.801C134.041 111.487 134.42 111.027 134.693 110.42C134.969 109.811 135.107 109.064 135.107 108.182Z" fill="#FF7F50"/>
<path d="M17.1477 114H16.1477V115H17.1477V114ZM17.1477 102.364V101.364H16.1477V102.364H17.1477ZM19.2557 102.364H20.2557V101.364H19.2557V102.364ZM19.2557 112.233H18.2557V113.233H19.2557V112.233ZM24.3807 112.233H25.3807V111.233H24.3807V112.233ZM24.3807 114V115H25.3807V114H24.3807ZM17.1477 114H18.1477V102.364H17.1477H16.1477V114H17.1477ZM17.1477 102.364V103.364H19.2557V102.364V101.364H17.1477V102.364ZM19.2557 102.364H18.2557V112.233H19.2557H20.2557V102.364H19.2557ZM19.2557 112.233V113.233H24.3807V112.233V111.233H19.2557V112.233ZM24.3807 112.233H23.3807V114H24.3807H25.3807V112.233H24.3807ZM24.3807 114V113H17.1477V114V115H24.3807V114ZM37.0503 111.403L36.165 110.938L36.1643 110.94L37.0503 111.403ZM35.1412 113.449L34.6351 112.586L34.6333 112.587L35.1412 113.449ZM29.6696 113.449L29.1587 114.309L29.1635 114.311L29.6696 113.449ZM27.7605 111.398L26.8737 111.86L26.8761 111.864L27.7605 111.398ZM27.7605 104.966L26.8753 104.501L26.8745 104.502L27.7605 104.966ZM29.6696 102.915L29.1635 102.052L29.1617 102.053L29.6696 102.915ZM35.1412 102.915L34.6333 103.776L34.6351 103.777L35.1412 102.915ZM37.0503 104.966L36.1635 105.428L36.1659 105.433L37.0503 104.966ZM35.2207 105.949L34.3078 106.357L34.311 106.364L35.2207 105.949ZM34.0844 104.568L33.5403 105.407L33.5449 105.41L34.0844 104.568ZM30.7321 104.568L31.2715 105.41L31.2762 105.407L30.7321 104.568ZM29.5901 105.949L28.6793 105.536L28.6781 105.538L29.5901 105.949ZM29.5901 110.42L28.6772 110.829L28.6803 110.836L29.5901 110.42ZM30.7321 111.801L30.188 112.64L30.1927 112.643L30.7321 111.801ZM34.0844 111.801L34.6238 112.643L34.6284 112.64L34.0844 111.801ZM35.2207 110.42L34.31 110.008L34.3088 110.01L35.2207 110.42ZM37.7548 108.182H36.7548C36.7548 109.312 36.5433 110.218 36.165 110.938L37.0503 111.403L37.9355 111.869C38.4967 110.801 38.7548 109.559 38.7548 108.182H37.7548ZM37.0503 111.403L36.1643 110.94C35.7785 111.677 35.2684 112.215 34.6351 112.586L35.1412 113.449L35.6473 114.311C36.6276 113.736 37.3902 112.91 37.9363 111.867L37.0503 111.403ZM35.1412 113.449L34.6333 112.587C33.9983 112.962 33.2657 113.159 32.4082 113.159V114.159V115.159C33.5887 115.159 34.6781 114.883 35.6491 114.31L35.1412 113.449ZM32.4082 114.159V113.159C31.5509 113.159 30.8156 112.962 30.1757 112.586L29.6696 113.449L29.1635 114.311C30.1373 114.883 31.2277 115.159 32.4082 115.159V114.159ZM29.6696 113.449L30.1805 112.589C29.5481 112.213 29.0356 111.671 28.6449 110.931L27.7605 111.398L26.8761 111.864C27.4248 112.904 28.1851 113.73 29.1587 114.308L29.6696 113.449ZM27.7605 111.398L28.6473 110.936C28.2715 110.215 28.0616 109.309 28.0616 108.182H27.0616H26.0616C26.0616 109.555 26.3177 110.793 26.8737 111.86L27.7605 111.398ZM27.0616 108.182H28.0616C28.0616 107.05 28.2718 106.146 28.6465 105.43L27.7605 104.966L26.8745 104.502C26.3174 105.567 26.0616 106.806 26.0616 108.182H27.0616ZM27.7605 104.966L28.6458 105.431C29.0364 104.687 29.548 104.147 30.1775 103.776L29.6696 102.915L29.1617 102.053C28.1852 102.629 27.424 103.456 26.8753 104.501L27.7605 104.966ZM29.6696 102.915L30.1757 103.777C30.8156 103.402 31.5509 103.205 32.4082 103.205V102.205V101.205C31.2277 101.205 30.1373 101.481 29.1635 102.052L29.6696 102.915ZM32.4082 102.205V103.205C33.2657 103.205 33.9983 103.402 34.6333 103.776L35.1412 102.915L35.6491 102.053C34.6781 101.481 33.5887 101.205 32.4082 101.205V102.205ZM35.1412 102.915L34.6351 103.777C35.2673 104.148 35.7774 104.687 36.1635 105.428L37.0503 104.966L37.9371 104.504C37.3914 103.457 36.6287 102.628 35.6473 102.052L35.1412 102.915ZM37.0503 104.966L36.1659 105.433C36.5432 106.148 36.7548 107.051 36.7548 108.182H37.7548H38.7548C38.7548 106.805 38.4967 105.564 37.9347 104.499L37.0503 104.966ZM35.6355 108.182H36.6355C36.6355 107.2 36.4825 106.305 36.1305 105.534L35.2207 105.949L34.311 106.364C34.512 106.805 34.6355 107.398 34.6355 108.182H35.6355ZM35.2207 105.949L36.1336 105.541C35.7944 104.782 35.2977 104.158 34.6238 103.726L34.0844 104.568L33.5449 105.41C33.8407 105.6 34.1016 105.896 34.3079 106.357L35.2207 105.949ZM34.0844 104.568L34.6284 103.729C33.9663 103.3 33.2149 103.097 32.4082 103.097V104.097V105.097C32.8667 105.097 33.2327 105.208 33.5403 105.407L34.0844 104.568ZM32.4082 104.097V103.097C31.6016 103.097 30.8501 103.3 30.188 103.729L30.7321 104.568L31.2762 105.407C31.5838 105.208 31.9497 105.097 32.4082 105.097V104.097ZM30.7321 104.568L30.1927 103.726C29.5201 104.157 29.0223 104.779 28.6793 105.536L29.5901 105.949L30.5008 106.362C30.7109 105.899 30.9744 105.601 31.2715 105.41L30.7321 104.568ZM29.5901 105.949L28.6781 105.538C28.3316 106.309 28.181 107.202 28.181 108.182H29.181H30.181C30.181 107.397 30.303 106.801 30.502 106.359L29.5901 105.949ZM29.181 108.182H28.181C28.181 109.162 28.3317 110.056 28.6772 110.829L29.5901 110.42L30.5029 110.012C30.3029 109.565 30.181 108.967 30.181 108.182H29.181ZM29.5901 110.42L28.6803 110.836C29.0235 111.588 29.5201 112.207 30.188 112.64L30.7321 111.801L31.2762 110.962C30.9744 110.766 30.7097 110.465 30.4998 110.005L29.5901 110.42ZM30.7321 111.801L30.1927 112.643C30.8542 113.067 31.604 113.267 32.4082 113.267V112.267V111.267C31.9473 111.267 31.5797 111.156 31.2715 110.959L30.7321 111.801ZM32.4082 112.267V113.267C33.2125 113.267 33.9622 113.067 34.6238 112.643L34.0844 111.801L33.5449 110.959C33.2368 111.156 32.8692 111.267 32.4082 111.267V112.267ZM34.0844 111.801L34.6284 112.64C35.2977 112.206 35.7932 111.585 36.1327 110.831L35.2207 110.42L34.3088 110.01C34.1028 110.468 33.8408 110.767 33.5403 110.962L34.0844 111.801ZM35.2207 110.42L36.1315 110.833C36.4824 110.06 36.6355 109.164 36.6355 108.182H35.6355H34.6355C34.6355 108.965 34.5121 109.562 34.31 110.008L35.2207 110.42ZM49.1432 106.08L48.1877 106.374L48.4053 107.08H49.1432V106.08ZM48.7511 105.256L47.9171 105.807L47.922 105.815L47.9271 105.822L48.7511 105.256ZM48.1602 104.625L47.5518 105.419L47.5581 105.423L48.1602 104.625ZM47.3761 104.233L47.082 105.189L47.0933 105.192L47.3761 104.233ZM44.7398 104.568L45.2809 105.409L45.2809 105.409L44.7398 104.568ZM43.5864 105.955L42.6777 105.537L42.6766 105.539L43.5864 105.955ZM43.5864 110.403L42.6756 110.816L42.6756 110.816L43.5864 110.403ZM44.7398 111.795L44.1971 112.635L44.2016 112.638L44.7398 111.795ZM47.9898 111.926L47.5272 111.04L47.524 111.041L47.9898 111.926ZM48.9955 110.96L49.8666 111.451L49.8685 111.448L48.9955 110.96ZM49.3477 109.483L49.5007 108.495L48.3477 108.316V109.483H49.3477ZM49.825 109.557V110.557L49.9779 108.569L49.825 109.557ZM46.6659 109.557H45.6659V110.557H46.6659V109.557ZM46.6659 107.909V106.909H45.6659V107.909H46.6659ZM51.3875 107.909H52.3875V106.909H51.3875V107.909ZM50.7511 111.892L51.6149 112.396L51.6149 112.396L50.7511 111.892ZM49.0011 113.574L49.4663 114.459L49.4699 114.457L49.0011 113.574ZM43.6205 113.438L43.1054 114.295L43.1101 114.297L43.6205 113.438ZM41.7284 111.375L40.8355 111.825L40.8378 111.83L41.7284 111.375ZM41.45 105.676L40.5103 105.334L40.5088 105.338L41.45 105.676ZM42.575 103.795L43.3059 104.478L43.3084 104.475L42.575 103.795ZM44.2682 102.614L44.6517 103.537L44.6562 103.535L44.2682 102.614ZM48.183 102.489L47.8609 103.435L47.8667 103.437L48.183 102.489ZM49.6659 103.284L49.042 104.066L49.0454 104.068L49.6659 103.284ZM50.7398 104.511L51.6003 104.002L51.6003 104.002L50.7398 104.511ZM51.2909 106.08V107.08H52.4548L52.2795 105.929L51.2909 106.08ZM49.1432 106.08L50.0987 105.785C49.9769 105.39 49.8041 105.022 49.5752 104.689L48.7511 105.256L47.9271 105.822C48.0315 105.974 48.1201 106.156 48.1877 106.374L49.1432 106.08ZM48.7511 105.256L49.5852 104.704C49.3608 104.365 49.086 104.071 48.7623 103.827L48.1602 104.625L47.5581 105.423C47.6966 105.528 47.8157 105.654 47.9171 105.807L48.7511 105.256ZM48.1602 104.625L48.7687 103.831C48.4368 103.577 48.0632 103.393 47.659 103.274L47.3761 104.233L47.0933 105.192C47.2799 105.247 47.4291 105.325 47.5518 105.419L48.1602 104.625ZM47.3761 104.233L47.6702 103.277C47.2682 103.153 46.8459 103.097 46.4102 103.097V104.097V105.097C46.6715 105.097 46.8931 105.131 47.0821 105.189L47.3761 104.233ZM46.4102 104.097V103.097C45.6085 103.097 44.861 103.301 44.1987 103.727L44.7398 104.568L45.2809 105.409C45.5958 105.206 45.962 105.097 46.4102 105.097V104.097ZM44.7398 104.568L44.1987 103.727C43.526 104.16 43.0251 104.781 42.6777 105.537L43.5864 105.955L44.495 106.372C44.7083 105.908 44.9763 105.605 45.2809 105.409L44.7398 104.568ZM43.5864 105.955L42.6766 105.539C42.3253 106.309 42.1716 107.198 42.1716 108.17H43.1716H44.1716C44.1716 107.4 44.2944 106.812 44.4961 106.37L43.5864 105.955ZM43.1716 108.17H42.1716C42.1716 109.149 42.3249 110.043 42.6756 110.816L43.5864 110.403L44.4971 109.99C44.2948 109.544 44.1716 108.949 44.1716 108.17H43.1716ZM43.5864 110.403L42.6756 110.816C43.0198 111.575 43.5216 112.199 44.1971 112.635L44.7398 111.795L45.2825 110.956C44.9731 110.756 44.706 110.451 44.4971 109.99L43.5864 110.403ZM44.7398 111.795L44.2016 112.638C44.8729 113.067 45.6362 113.267 46.4557 113.267V112.267V111.267C45.9722 111.267 45.5915 111.153 45.2779 110.953L44.7398 111.795ZM46.4557 112.267V113.267C47.175 113.267 47.8528 113.128 48.4555 112.811L47.9898 111.926L47.524 111.041C47.2631 111.179 46.9182 111.267 46.4557 111.267V112.267ZM47.9898 111.926L48.4523 112.813C49.0546 112.498 49.534 112.041 49.8666 111.451L48.9955 110.96L48.1243 110.469C47.9872 110.712 47.7962 110.899 47.5272 111.04L47.9898 111.926ZM48.9955 110.96L49.8685 111.448C50.1999 110.855 50.3477 110.189 50.3477 109.483H49.3477H48.3477C48.3477 109.906 48.2607 110.225 48.1224 110.473L48.9955 110.96ZM49.3477 109.483L49.1948 110.471L49.6721 110.545L49.825 109.557L49.9779 108.569L49.5007 108.495L49.3477 109.483ZM49.825 109.557V108.557H46.6659V109.557V110.557H49.825V109.557ZM46.6659 109.557H47.6659V107.909H46.6659H45.6659V109.557H46.6659ZM46.6659 107.909V108.909H51.3875V107.909V106.909H46.6659V107.909ZM51.3875 107.909H50.3875V109.307H51.3875H52.3875V107.909H51.3875ZM51.3875 109.307H50.3875C50.3875 110.159 50.2073 110.84 49.8874 111.388L50.7511 111.892L51.6149 112.396C52.1435 111.49 52.3875 110.447 52.3875 109.307H51.3875ZM50.7511 111.892L49.8874 111.388C49.5567 111.955 49.1101 112.384 48.5324 112.691L49.0011 113.574L49.4699 114.457C50.377 113.976 51.0971 113.284 51.6149 112.396L50.7511 111.892ZM49.0011 113.574L48.536 112.689C47.9568 112.993 47.2684 113.159 46.4443 113.159V114.159V115.159C47.5445 115.159 48.5606 114.935 49.4663 114.459L49.0011 113.574ZM46.4443 114.159V113.159C45.5268 113.159 44.7667 112.955 44.1308 112.578L43.6205 113.438L43.1101 114.297C44.0954 114.882 45.2179 115.159 46.4443 115.159V114.159ZM43.6205 113.438L44.1355 112.58C43.4991 112.198 42.994 111.655 42.619 110.92L41.7284 111.375L40.8378 111.83C41.3719 112.876 42.1282 113.707 43.1054 114.295L43.6205 113.438ZM41.7284 111.375L42.6213 110.925C42.2551 110.198 42.0523 109.299 42.0523 108.193H41.0523H40.0523C40.0523 109.542 40.3002 110.764 40.8355 111.825L41.7284 111.375ZM41.0523 108.193H42.0523C42.0523 107.347 42.1718 106.625 42.3912 106.014L41.45 105.676L40.5088 105.338C40.1979 106.204 40.0523 107.161 40.0523 108.193H41.0523ZM41.45 105.676L42.3897 106.018C42.6179 105.391 42.9266 104.884 43.3059 104.478L42.575 103.795L41.8441 103.113C41.2613 103.737 40.82 104.484 40.5103 105.334L41.45 105.676ZM42.575 103.795L43.3084 104.475C43.6926 104.061 44.1379 103.75 44.6516 103.537L44.2682 102.614L43.8847 101.69C43.103 102.015 42.4195 102.492 41.8416 103.116L42.575 103.795ZM44.2682 102.614L44.6562 103.535C45.1712 103.318 45.7425 103.205 46.3818 103.205V102.205V101.205C45.4984 101.205 44.6606 101.363 43.8801 101.692L44.2682 102.614ZM46.3818 102.205V103.205C46.9266 103.205 47.4172 103.284 47.8609 103.435L48.183 102.489L48.505 101.542C47.8351 101.314 47.1249 101.205 46.3818 101.205V102.205ZM48.183 102.489L47.8667 103.437C48.319 103.588 48.7077 103.799 49.0421 104.066L49.6659 103.284L50.2898 102.503C49.7604 102.08 49.1606 101.76 48.4992 101.54L48.183 102.489ZM49.6659 103.284L49.0454 104.068C49.3858 104.338 49.662 104.654 49.8793 105.021L50.7398 104.511L51.6003 104.002C51.2569 103.422 50.8173 102.92 50.2864 102.5L49.6659 103.284ZM50.7398 104.511L49.8793 105.021C50.0909 105.378 50.2335 105.778 50.3023 106.23L51.2909 106.08L52.2795 105.929C52.1741 105.237 51.9492 104.591 51.6003 104.002L50.7398 104.511ZM51.2909 106.08V105.08H49.1432V106.08V107.08H51.2909V106.08ZM64.719 111.403L63.8338 110.938L63.8331 110.94L64.719 111.403ZM62.8099 113.449L62.3038 112.586L62.302 112.587L62.8099 113.449ZM57.3384 113.449L56.8274 114.309L56.8322 114.311L57.3384 113.449ZM55.4293 111.398L54.5425 111.86L54.5448 111.864L55.4293 111.398ZM55.4293 104.966L54.544 104.501L54.5433 104.502L55.4293 104.966ZM57.3384 102.915L56.8322 102.052L56.8304 102.053L57.3384 102.915ZM62.8099 102.915L62.302 103.776L62.3038 103.777L62.8099 102.915ZM64.719 104.966L63.8322 105.428L63.8346 105.433L64.719 104.966ZM62.8895 105.949L61.9766 106.357L61.9797 106.364L62.8895 105.949ZM61.7531 104.568L61.209 105.407L61.2137 105.41L61.7531 104.568ZM58.4009 104.568L58.9403 105.41L58.9449 105.407L58.4009 104.568ZM57.2588 105.949L56.348 105.536L56.3469 105.538L57.2588 105.949ZM57.2588 110.42L56.3459 110.829L56.349 110.836L57.2588 110.42ZM58.4009 111.801L57.8568 112.64L57.8614 112.643L58.4009 111.801ZM61.7531 111.801L62.2926 112.643L62.2972 112.64L61.7531 111.801ZM62.8895 110.42L61.9787 110.008L61.9776 110.01L62.8895 110.42ZM65.4236 108.182H64.4236C64.4236 109.312 64.212 110.218 63.8338 110.938L64.719 111.403L65.6043 111.869C66.1654 110.801 66.4236 109.559 66.4236 108.182H65.4236ZM64.719 111.403L63.8331 110.94C63.4473 111.677 62.9372 112.215 62.3038 112.586L62.8099 113.449L63.3161 114.311C64.2963 113.736 65.059 112.91 65.605 111.867L64.719 111.403ZM62.8099 113.449L62.302 112.587C61.667 112.962 60.9344 113.159 60.077 113.159V114.159V115.159C61.2574 115.159 62.3468 114.883 63.3179 114.31L62.8099 113.449ZM60.077 114.159V113.159C59.2196 113.159 58.4843 112.962 57.8445 112.586L57.3384 113.449L56.8322 114.311C57.806 114.883 58.8965 115.159 60.077 115.159V114.159ZM57.3384 113.449L57.8493 112.589C57.2168 112.213 56.7044 111.671 56.3137 110.931L55.4293 111.398L54.5448 111.864C55.0936 112.904 55.8538 113.73 56.8274 114.308L57.3384 113.449ZM55.4293 111.398L56.316 110.936C55.9403 110.215 55.7304 109.309 55.7304 108.182H54.7304H53.7304C53.7304 109.555 53.9864 110.793 54.5425 111.86L55.4293 111.398ZM54.7304 108.182H55.7304C55.7304 107.05 55.9405 106.146 56.3152 105.43L55.4293 104.966L54.5433 104.502C53.9862 105.567 53.7304 106.806 53.7304 108.182H54.7304ZM55.4293 104.966L56.3145 105.431C56.7052 104.687 57.2167 104.147 57.8463 103.776L57.3384 102.915L56.8304 102.053C55.8539 102.629 55.0927 103.456 54.544 104.501L55.4293 104.966ZM57.3384 102.915L57.8445 103.777C58.4843 103.402 59.2196 103.205 60.077 103.205V102.205V101.205C58.8965 101.205 57.806 101.481 56.8322 102.052L57.3384 102.915ZM60.077 102.205V103.205C60.9344 103.205 61.667 103.402 62.302 103.776L62.8099 102.915L63.3178 102.053C62.3468 101.481 61.2574 101.205 60.077 101.205V102.205ZM62.8099 102.915L62.3038 103.777C62.9361 104.148 63.4461 104.687 63.8322 105.428L64.719 104.966L65.6058 104.504C65.0601 103.457 64.2974 102.628 63.3161 102.052L62.8099 102.915ZM64.719 104.966L63.8346 105.433C64.212 106.148 64.4236 107.051 64.4236 108.182H65.4236H66.4236C66.4236 106.805 66.1655 105.564 65.6035 104.499L64.719 104.966ZM63.3043 108.182H64.3043C64.3043 107.2 64.1512 106.305 63.7993 105.534L62.8895 105.949L61.9797 106.364C62.1808 106.805 62.3043 107.398 62.3043 108.182H63.3043ZM62.8895 105.949L63.8024 105.541C63.4631 104.782 62.9665 104.158 62.2926 103.726L61.7531 104.568L61.2137 105.41C61.5095 105.6 61.7704 105.896 61.9766 106.357L62.8895 105.949ZM61.7531 104.568L62.2972 103.729C61.6351 103.3 60.8836 103.097 60.077 103.097V104.097V105.097C60.5355 105.097 60.9015 105.208 61.2091 105.407L61.7531 104.568ZM60.077 104.097V103.097C59.2703 103.097 58.5189 103.3 57.8568 103.729L58.4009 104.568L58.9449 105.407C59.2525 105.208 59.6185 105.097 60.077 105.097V104.097ZM58.4009 104.568L57.8614 103.726C57.1889 104.157 56.691 104.779 56.3481 105.536L57.2588 105.949L58.1696 106.362C58.3796 105.899 58.6431 105.601 58.9403 105.41L58.4009 104.568ZM57.2588 105.949L56.3469 105.538C56.0004 106.309 55.8497 107.202 55.8497 108.182H56.8497H57.8497C57.8497 107.397 57.9718 106.801 58.1707 106.359L57.2588 105.949ZM56.8497 108.182H55.8497C55.8497 109.162 56.0005 110.056 56.3459 110.829L57.2588 110.42L58.1717 110.012C57.9717 109.565 57.8497 108.967 57.8497 108.182H56.8497ZM57.2588 110.42L56.349 110.836C56.6922 111.588 57.1889 112.207 57.8568 112.64L58.4009 111.801L58.9449 110.962C58.6431 110.766 58.3784 110.465 58.1686 110.005L57.2588 110.42ZM58.4009 111.801L57.8614 112.643C58.523 113.067 59.2728 113.267 60.077 113.267V112.267V111.267C59.6161 111.267 59.2484 111.156 58.9403 110.959L58.4009 111.801ZM60.077 112.267V113.267C60.8812 113.267 61.631 113.067 62.2926 112.643L61.7531 111.801L61.2137 110.959C60.9056 111.156 60.5379 111.267 60.077 111.267V112.267ZM61.7531 111.801L62.2972 112.64C62.9664 112.206 63.4619 111.585 63.8014 110.831L62.8895 110.42L61.9776 110.01C61.7716 110.468 61.5095 110.767 61.2091 110.962L61.7531 111.801ZM62.8895 110.42L63.8002 110.833C64.1511 110.06 64.3043 109.164 64.3043 108.182H63.3043H62.3043C62.3043 108.965 62.1809 109.562 61.9787 110.008L62.8895 110.42ZM74.5852 114H73.5852V115H74.5852V114ZM74.5852 102.364V101.364H73.5852V102.364H74.5852ZM81.1364 102.761L80.7064 103.664L80.7138 103.668L81.1364 102.761ZM82.392 103.835L81.5377 104.355L81.5409 104.36L82.392 103.835ZM82.5398 106.597L83.4177 107.075L83.4199 107.071L82.5398 106.597ZM81.8068 107.409L81.2451 106.582L81.2451 106.582L81.8068 107.409ZM80.7784 107.858L80.545 106.886L79.7784 107.07V107.858H80.7784ZM80.7784 107.972H79.7784V108.918L80.7234 108.97L80.7784 107.972ZM81.9659 108.352L81.4451 109.206L81.4552 109.212L81.9659 108.352ZM82.9034 109.318L82.0391 109.821L82.0391 109.821L82.9034 109.318ZM82.8295 112.455L83.6828 112.976L83.6847 112.973L82.8295 112.455ZM81.5114 113.585L81.0853 112.681L81.5114 113.585ZM76.6932 112.239H75.6932V113.239H76.6932V112.239ZM80.6136 111.801L81.2679 112.557L81.2686 112.557L80.6136 111.801ZM80.8693 109.733L80.0149 110.253L80.0181 110.258L80.8693 109.733ZM80.142 109.074L79.682 109.962L79.6905 109.966L80.142 109.074ZM76.6932 108.83V107.83H75.6932V108.83H76.6932ZM76.6932 107.312H75.6932V108.312H76.6932V107.312ZM79.7614 107.114L80.1752 108.024L80.1849 108.02L79.7614 107.114ZM80.4489 106.54L79.6226 105.976L79.6208 105.979L80.4489 106.54ZM80.2273 104.54L79.5471 105.273L79.5515 105.277L80.2273 104.54ZM76.6932 104.102V103.102H75.6932V104.102H76.6932ZM74.5852 114H75.5852V102.364H74.5852H73.5852V114H74.5852ZM74.5852 102.364V103.364H79.0398V102.364V101.364H74.5852V102.364ZM79.0398 102.364V103.364C79.7831 103.364 80.3235 103.482 80.7064 103.664L81.1364 102.761L81.5663 101.859C80.8356 101.511 79.9783 101.364 79.0398 101.364V102.364ZM81.1364 102.761L80.7138 103.668C81.1253 103.86 81.3797 104.095 81.5377 104.355L82.392 103.835L83.2464 103.316C82.8514 102.666 82.2686 102.186 81.5589 101.855L81.1364 102.761ZM82.392 103.835L81.5409 104.36C81.7163 104.645 81.8125 104.975 81.8125 105.381H82.8125H83.8125C83.8125 104.635 83.6284 103.935 83.2432 103.31L82.392 103.835ZM82.8125 105.381H81.8125C81.8125 105.727 81.7463 105.961 81.6596 106.122L82.5398 106.597L83.4199 107.071C83.6969 106.558 83.8125 105.981 83.8125 105.381H82.8125ZM82.5398 106.597L81.6619 106.118C81.5543 106.315 81.4171 106.465 81.2451 106.582L81.8068 107.409L82.3686 108.236C82.8102 107.937 83.1616 107.545 83.4177 107.075L82.5398 106.597ZM81.8068 107.409L81.2451 106.582C81.043 106.719 80.8125 106.821 80.545 106.886L80.7784 107.858L81.0118 108.83C81.5019 108.713 81.957 108.516 82.3686 108.236L81.8068 107.409ZM80.7784 107.858H79.7784V107.972H80.7784H81.7784V107.858H80.7784ZM80.7784 107.972L80.7234 108.97C80.9595 108.983 81.1967 109.054 81.4451 109.206L81.9659 108.352L82.4867 107.499C81.9775 107.188 81.423 107.006 80.8334 106.973L80.7784 107.972ZM81.9659 108.352L81.4552 109.212C81.6794 109.345 81.8749 109.539 82.0391 109.821L82.9034 109.318L83.7678 108.815C83.4471 108.264 83.0176 107.814 82.4766 107.493L81.9659 108.352ZM82.9034 109.318L82.0391 109.821C82.1746 110.054 82.267 110.376 82.267 110.83H83.267H84.267C84.267 110.102 84.1171 109.416 83.7678 108.815L82.9034 109.318ZM83.267 110.83H82.267C82.267 111.262 82.1646 111.622 81.9744 111.936L82.8295 112.455L83.6847 112.973C84.0778 112.325 84.267 111.601 84.267 110.83H83.267ZM82.8295 112.455L81.9763 111.933C81.802 112.218 81.5246 112.474 81.0853 112.681L81.5114 113.585L81.9374 114.49C82.6723 114.144 83.2737 113.645 83.6828 112.976L82.8295 112.455ZM81.5114 113.585L81.0853 112.681C80.6713 112.875 80.0899 113 79.2955 113V114V115C80.2813 115 81.1771 114.848 81.9374 114.49L81.5114 113.585ZM79.2955 114V113H74.5852V114V115H79.2955V114ZM76.6932 112.239V113.239H78.9602V112.239V111.239H76.6932V112.239ZM78.9602 112.239V113.239C79.8082 113.239 80.6577 113.085 81.2679 112.557L80.6136 111.801L79.9594 111.045C79.8953 111.1 79.6425 111.239 78.9602 111.239V112.239ZM80.6136 111.801L81.2686 112.557C81.8347 112.066 82.125 111.409 82.125 110.665H81.125H80.125C80.125 110.845 80.0744 110.945 79.9587 111.045L80.6136 111.801ZM81.125 110.665H82.125C82.125 110.147 81.9943 109.652 81.7206 109.208L80.8693 109.733L80.0181 110.258C80.0852 110.367 80.125 110.494 80.125 110.665H81.125ZM80.8693 109.733L81.7237 109.213C81.4492 108.762 81.0616 108.418 80.5936 108.182L80.142 109.074L79.6905 109.966C79.8513 110.047 79.9486 110.143 80.0149 110.253L80.8693 109.733ZM80.142 109.074L80.6021 108.186C80.1164 107.934 79.5765 107.83 79.017 107.83V108.83V109.83C79.3288 109.83 79.5389 109.888 79.682 109.962L80.142 109.074ZM79.017 108.83V107.83H76.6932V108.83V109.83H79.017V108.83ZM76.6932 108.83H75.6932V112.239H76.6932H77.6932V108.83H76.6932ZM76.6932 107.312V108.312H78.7784V107.312V106.312H76.6932V107.312ZM78.7784 107.312V108.312C79.2655 108.312 79.7371 108.223 80.1752 108.024L79.7614 107.114L79.3476 106.203C79.2023 106.269 79.0186 106.312 78.7784 106.312V107.312ZM79.7614 107.114L80.1849 108.02C80.6261 107.813 81.0007 107.508 81.277 107.1L80.4489 106.54L79.6208 105.979C79.5636 106.064 79.48 106.141 79.3378 106.208L79.7614 107.114ZM80.4489 106.54L81.2751 107.103C81.5728 106.667 81.7045 106.169 81.7045 105.653H80.7045H79.7045C79.7045 105.82 79.6659 105.913 79.6226 105.976L80.4489 106.54ZM80.7045 105.653H81.7045C81.7045 104.936 81.4379 104.293 80.903 103.803L80.2273 104.54L79.5515 105.277C79.653 105.37 79.7045 105.469 79.7045 105.653H80.7045ZM80.2273 104.54L80.9074 103.807C80.3397 103.28 79.5852 103.102 78.8239 103.102V104.102V105.102C79.3049 105.102 79.4861 105.216 79.5472 105.273L80.2273 104.54ZM78.8239 104.102V103.102H76.6932V104.102V105.102H78.8239V104.102ZM76.6932 104.102H75.6932V107.312H76.6932H77.6932V104.102H76.6932ZM88.1952 114V115H88.9145L89.1433 114.318L88.1952 114ZM85.9452 114L85.0019 113.668L84.533 115H85.9452V114ZM90.0418 102.364V101.364H89.3337L89.0985 102.032L90.0418 102.364ZM92.644 102.364L93.5871 102.031L93.3518 101.364H92.644V102.364ZM96.7463 114V115H98.1592L97.6894 113.668L96.7463 114ZM94.4963 114L93.5484 114.318L93.7774 115H94.4963V114ZM91.3884 104.75L92.3363 104.432L92.1073 103.75H91.3884V104.75ZM91.2974 104.75V103.75H90.5781L90.3493 104.432L91.2974 104.75ZM88.269 109.438V108.438H87.269V109.438H88.269ZM94.4054 109.438H95.4054V108.438H94.4054V109.438ZM94.4054 111.131V112.131H95.4054V111.131H94.4054ZM88.269 111.131H87.269V112.131H88.269V111.131ZM88.1952 114V113H85.9452V114V115H88.1952V114ZM85.9452 114L86.8884 114.332L90.985 102.696L90.0418 102.364L89.0985 102.032L85.0019 113.668L85.9452 114ZM90.0418 102.364V103.364H92.644V102.364V101.364H90.0418V102.364ZM92.644 102.364L91.7009 102.696L95.8032 114.332L96.7463 114L97.6894 113.668L93.5871 102.031L92.644 102.364ZM96.7463 114V113H94.4963V114V115H96.7463V114ZM94.4963 114L95.4442 113.682L92.3363 104.432L91.3884 104.75L90.4404 105.068L93.5484 114.318L94.4963 114ZM91.3884 104.75V103.75H91.2974V104.75V105.75H91.3884V104.75ZM91.2974 104.75L90.3493 104.432L87.2471 113.682L88.1952 114L89.1433 114.318L92.2455 105.068L91.2974 104.75ZM88.269 109.438V110.438H94.4054V109.438V108.438H88.269V109.438ZM94.4054 109.438H93.4054V111.131H94.4054H95.4054V109.438H94.4054ZM94.4054 111.131V110.131H88.269V111.131V112.131H94.4054V111.131ZM88.269 111.131H89.269V109.438H88.269H87.269V111.131H88.269ZM109.441 102.364H110.441V101.364H109.441V102.364ZM109.441 114V115H110.441V114H109.441ZM107.566 114L106.744 114.569L107.042 115H107.566V114ZM102.084 106.074L102.906 105.505L102.608 105.074H102.084V106.074ZM101.987 106.074V105.074H100.987V106.074H101.987ZM101.987 114V115H102.987V114H101.987ZM99.879 114H98.879V115H99.879V114ZM99.879 102.364V101.364H98.879V102.364H99.879ZM101.765 102.364L102.588 101.795L102.29 101.364H101.765V102.364ZM107.243 110.295L106.42 110.864L106.718 111.295H107.243V110.295ZM107.345 110.295V111.295H108.345V110.295H107.345ZM107.345 102.364V101.364H106.345V102.364H107.345ZM109.441 102.364H108.441V114H109.441H110.441V102.364H109.441ZM109.441 114V113H107.566V114V115H109.441V114ZM107.566 114L108.389 113.431L102.906 105.505L102.084 106.074L101.261 106.643L106.744 114.569L107.566 114ZM102.084 106.074V105.074H101.987V106.074V107.074H102.084V106.074ZM101.987 106.074H100.987V114H101.987H102.987V106.074H101.987ZM101.987 114V113H99.879V114V115H101.987V114ZM99.879 114H100.879V102.364H99.879H98.879V114H99.879ZM99.879 102.364V103.364H101.765V102.364V101.364H99.879V102.364ZM101.765 102.364L100.942 102.932L106.42 110.864L107.243 110.295L108.065 109.727L102.588 101.795L101.765 102.364ZM107.243 110.295V111.295H107.345V110.295V109.295H107.243V110.295ZM107.345 110.295H108.345V102.364H107.345H106.345V110.295H107.345ZM107.345 102.364V103.364H109.441V102.364V101.364H107.345V102.364ZM123.299 106.29V107.29H124.442L124.29 106.156L123.299 106.29ZM121.174 106.29L120.188 106.461L120.332 107.29H121.174V106.29ZM120.838 105.364L119.98 105.876L119.983 105.882L120.838 105.364ZM120.23 104.67L120.846 103.882L120.846 103.882L120.23 104.67ZM119.401 104.244L119.095 105.196L119.102 105.199L119.109 105.201L119.401 104.244ZM116.725 104.574L117.266 105.415L117.27 105.412L116.725 104.574ZM115.577 105.96L116.487 106.375L116.488 106.373L115.577 105.96ZM115.577 110.432L114.666 110.845L114.669 110.852L115.577 110.432ZM116.725 111.807L116.185 112.649L116.193 112.654L116.725 111.807ZM119.378 112.131L119.665 113.089L119.673 113.086L119.378 112.131ZM120.202 111.716L119.608 110.911L119.602 110.916L120.202 111.716ZM120.821 111.045L119.98 110.505L119.975 110.513L120.821 111.045ZM121.174 110.136L121.179 109.136L120.346 109.132L120.191 109.951L121.174 110.136ZM123.299 110.148L124.288 110.29L124.452 109.154L123.304 109.148L123.299 110.148ZM122.782 111.705L121.904 111.225L121.901 111.23L122.782 111.705ZM121.753 112.989L122.408 113.745L122.412 113.741L121.753 112.989ZM120.264 113.852L120.603 114.793L120.609 114.791L120.264 113.852ZM115.634 113.449L116.142 112.587L115.634 113.449ZM113.736 111.398L112.848 111.857L112.848 111.857L113.736 111.398ZM113.742 104.966L114.628 105.43L114.629 105.428L113.742 104.966ZM115.645 102.915L115.137 102.053L115.137 102.053L115.645 102.915ZM120.179 102.477L120.49 101.527L120.49 101.527L120.179 102.477ZM121.668 103.278L121.039 104.056L121.043 104.059L121.668 103.278ZM122.742 104.562L121.866 105.046L121.871 105.054L122.742 104.562ZM123.299 106.29V105.29H121.174V106.29V107.29H123.299V106.29ZM121.174 106.29L122.159 106.118C122.08 105.663 121.929 105.233 121.694 104.846L120.838 105.364L119.983 105.882C120.074 106.032 120.146 106.22 120.188 106.461L121.174 106.29ZM120.838 105.364L121.697 104.851C121.473 104.476 121.189 104.15 120.846 103.882L120.23 104.67L119.615 105.458C119.757 105.569 119.878 105.706 119.98 105.876L120.838 105.364ZM120.23 104.67L120.846 103.882C120.502 103.613 120.114 103.416 119.692 103.288L119.401 104.244L119.109 105.201C119.309 105.262 119.474 105.349 119.615 105.458L120.23 104.67ZM119.401 104.244L119.706 103.292C119.291 103.159 118.856 103.097 118.407 103.097V104.097V105.097C118.67 105.097 118.897 105.133 119.095 105.196L119.401 104.244ZM118.407 104.097V103.097C117.597 103.097 116.844 103.303 116.179 103.736L116.725 104.574L117.27 105.412C117.583 105.208 117.951 105.097 118.407 105.097V104.097ZM116.725 104.574L116.184 103.733C115.51 104.167 115.01 104.79 114.666 105.547L115.577 105.96L116.488 106.373C116.697 105.911 116.963 105.61 117.266 105.415L116.725 104.574ZM115.577 105.96L114.667 105.545C114.316 106.316 114.162 107.206 114.162 108.182H115.162H116.162C116.162 107.407 116.285 106.817 116.487 106.375L115.577 105.96ZM115.162 108.182H114.162C114.162 109.17 114.315 110.07 114.666 110.845L115.577 110.432L116.488 110.019C116.286 109.574 116.162 108.974 116.162 108.182H115.162ZM115.577 110.432L114.669 110.852C115.017 111.602 115.516 112.22 116.185 112.649L116.725 111.807L117.264 110.965C116.964 110.773 116.698 110.473 116.485 110.012L115.577 110.432ZM116.725 111.807L116.193 112.654C116.855 113.069 117.601 113.267 118.401 113.267V112.267V111.267C117.943 111.267 117.572 111.158 117.256 110.96L116.725 111.807ZM118.401 112.267V113.267C118.837 113.267 119.26 113.21 119.665 113.089L119.378 112.131L119.091 111.173C118.89 111.233 118.662 111.267 118.401 111.267V112.267ZM119.378 112.131L119.673 113.086C120.083 112.96 120.462 112.771 120.802 112.516L120.202 111.716L119.602 110.916C119.457 111.025 119.287 111.112 119.083 111.175L119.378 112.131ZM120.202 111.716L120.796 112.52C121.145 112.263 121.436 111.946 121.668 111.578L120.821 111.045L119.975 110.513C119.873 110.675 119.751 110.806 119.608 110.911L120.202 111.716ZM120.821 111.045L121.662 111.586C121.909 111.202 122.07 110.777 122.156 110.322L121.174 110.136L120.191 109.951C120.148 110.178 120.074 110.358 119.98 110.505L120.821 111.045ZM121.174 110.136L121.168 111.136L123.293 111.148L123.299 110.148L123.304 109.148L121.179 109.136L121.174 110.136ZM123.299 110.148L122.309 110.005C122.246 110.441 122.111 110.846 121.904 111.225L122.782 111.705L123.659 112.184C123.982 111.593 124.192 110.96 124.288 110.29L123.299 110.148ZM122.782 111.705L121.901 111.23C121.698 111.607 121.431 111.942 121.095 112.236L121.753 112.989L122.412 113.741C122.924 113.293 123.342 112.772 123.662 112.179L122.782 111.705ZM121.753 112.989L121.098 112.233C120.773 112.515 120.384 112.743 119.92 112.913L120.264 113.852L120.609 114.791C121.282 114.544 121.885 114.197 122.408 113.745L121.753 112.989ZM120.264 113.852L119.926 112.911C119.481 113.071 118.967 113.159 118.372 113.159V114.159V115.159C119.164 115.159 119.912 115.042 120.603 114.793L120.264 113.852ZM118.372 114.159V113.159C117.511 113.159 116.776 112.962 116.142 112.587L115.634 113.449L115.126 114.31C116.098 114.883 117.189 115.159 118.372 115.159V114.159ZM115.634 113.449L116.142 112.587C115.514 112.217 115.007 111.679 114.624 110.939L113.736 111.398L112.848 111.857C113.389 112.904 114.148 113.734 115.126 114.31L115.634 113.449ZM113.736 111.398L114.624 110.939C114.251 110.217 114.043 109.31 114.043 108.182H113.043H112.043C112.043 109.554 112.297 110.791 112.848 111.857L113.736 111.398ZM113.043 108.182H114.043C114.043 107.05 114.253 106.146 114.628 105.43L113.742 104.966L112.856 104.502C112.299 105.567 112.043 106.806 112.043 108.182H113.043ZM113.742 104.966L114.629 105.428C115.015 104.686 115.524 104.147 116.153 103.776L115.645 102.915L115.137 102.053C114.16 102.63 113.4 103.458 112.855 104.504L113.742 104.966ZM115.645 102.915L116.153 103.776C116.789 103.401 117.52 103.205 118.372 103.205V102.205V101.205C117.195 101.205 116.108 101.481 115.137 102.053L115.645 102.915ZM118.372 102.205V103.205C118.926 103.205 119.422 103.282 119.869 103.428L120.179 102.477L120.49 101.527C119.823 101.309 119.115 101.205 118.372 101.205V102.205ZM120.179 102.477L119.869 103.428C120.315 103.574 120.702 103.784 121.039 104.056L121.668 103.278L122.297 102.501C121.762 102.069 121.157 101.745 120.49 101.527L120.179 102.477ZM121.668 103.278L121.043 104.059C121.373 104.323 121.647 104.648 121.866 105.046L122.742 104.562L123.617 104.079C123.276 103.462 122.834 102.931 122.293 102.498L121.668 103.278ZM122.742 104.562L121.871 105.054C122.085 105.433 122.235 105.885 122.308 106.423L123.299 106.29L124.29 106.156C124.188 105.399 123.967 104.699 123.613 104.071L122.742 104.562ZM136.522 111.403L135.637 110.938L135.636 110.94L136.522 111.403ZM134.613 113.449L134.107 112.586L134.105 112.587L134.613 113.449ZM129.141 113.449L128.631 114.309L128.635 114.311L129.141 113.449ZM127.232 111.398L126.346 111.86L126.348 111.864L127.232 111.398ZM127.232 104.966L126.347 104.501L126.346 104.502L127.232 104.966ZM129.141 102.915L128.635 102.052L128.634 102.053L129.141 102.915ZM134.613 102.915L134.105 103.776L134.107 103.777L134.613 102.915ZM136.522 104.966L135.635 105.428L135.638 105.433L136.522 104.966ZM134.693 105.949L133.78 106.357L133.783 106.364L134.693 105.949ZM133.556 104.568L133.012 105.407L133.017 105.41L133.556 104.568ZM130.204 104.568L130.743 105.41L130.748 105.407L130.204 104.568ZM129.062 105.949L128.151 105.536L128.15 105.538L129.062 105.949ZM129.062 110.42L128.149 110.829L128.152 110.836L129.062 110.42ZM130.204 111.801L129.66 112.64L129.665 112.643L130.204 111.801ZM133.556 111.801L134.096 112.643L134.1 112.64L133.556 111.801ZM134.693 110.42L133.782 110.008L133.781 110.01L134.693 110.42ZM137.227 108.182H136.227C136.227 109.312 136.015 110.218 135.637 110.938L136.522 111.403L137.407 111.869C137.969 110.801 138.227 109.559 138.227 108.182H137.227ZM136.522 111.403L135.636 110.94C135.25 111.677 134.74 112.215 134.107 112.586L134.613 113.449L135.119 114.311C136.099 113.736 136.862 112.91 137.408 111.867L136.522 111.403ZM134.613 113.449L134.105 112.587C133.47 112.962 132.738 113.159 131.88 113.159V114.159V115.159C133.061 115.159 134.15 114.883 135.121 114.31L134.613 113.449ZM131.88 114.159V113.159C131.023 113.159 130.287 112.962 129.648 112.586L129.141 113.449L128.635 114.311C129.609 114.883 130.7 115.159 131.88 115.159V114.159ZM129.141 113.449L129.652 112.589C129.02 112.213 128.507 111.671 128.117 110.931L127.232 111.398L126.348 111.864C126.897 112.904 127.657 113.73 128.631 114.308L129.141 113.449ZM127.232 111.398L128.119 110.936C127.743 110.215 127.534 109.309 127.534 108.182H126.534H125.534C125.534 109.555 125.79 110.793 126.346 111.86L127.232 111.398ZM126.534 108.182H127.534C127.534 107.05 127.744 106.146 128.118 105.43L127.232 104.966L126.346 104.502C125.789 105.567 125.534 106.806 125.534 108.182H126.534ZM127.232 104.966L128.118 105.431C128.508 104.687 129.02 104.147 129.649 103.776L129.141 102.915L128.634 102.053C127.657 102.629 126.896 103.456 126.347 104.501L127.232 104.966ZM129.141 102.915L129.648 103.777C130.287 103.402 131.023 103.205 131.88 103.205V102.205V101.205C130.7 101.205 129.609 101.481 128.635 102.052L129.141 102.915ZM131.88 102.205V103.205C132.738 103.205 133.47 103.402 134.105 103.776L134.613 102.915L135.121 102.053C134.15 101.481 133.061 101.205 131.88 101.205V102.205ZM134.613 102.915L134.107 103.777C134.739 104.148 135.249 104.687 135.635 105.428L136.522 104.966L137.409 104.504C136.863 103.457 136.101 102.628 135.119 102.052L134.613 102.915ZM136.522 104.966L135.638 105.433C136.015 106.148 136.227 107.051 136.227 108.182H137.227H138.227C138.227 106.805 137.969 105.564 137.407 104.499L136.522 104.966ZM135.107 108.182H136.107C136.107 107.2 135.954 106.305 135.602 105.534L134.693 105.949L133.783 106.364C133.984 106.805 134.107 107.398 134.107 108.182H135.107ZM134.693 105.949L135.605 105.541C135.266 104.782 134.77 104.158 134.096 103.726L133.556 104.568L133.017 105.41C133.313 105.6 133.574 105.896 133.78 106.357L134.693 105.949ZM133.556 104.568L134.1 103.729C133.438 103.3 132.687 103.097 131.88 103.097V104.097V105.097C132.339 105.097 132.705 105.208 133.012 105.407L133.556 104.568ZM131.88 104.097V103.097C131.073 103.097 130.322 103.3 129.66 103.729L130.204 104.568L130.748 105.407C131.056 105.208 131.422 105.097 131.88 105.097V104.097ZM130.204 104.568L129.665 103.726C128.992 104.157 128.494 104.779 128.151 105.536L129.062 105.949L129.973 106.362C130.183 105.899 130.446 105.601 130.743 105.41L130.204 104.568ZM129.062 105.949L128.15 105.538C127.804 106.309 127.653 107.202 127.653 108.182H128.653H129.653C129.653 107.397 129.775 106.801 129.974 106.359L129.062 105.949ZM128.653 108.182H127.653C127.653 109.162 127.804 110.056 128.149 110.829L129.062 110.42L129.975 110.012C129.775 109.565 129.653 108.967 129.653 108.182H128.653ZM129.062 110.42L128.152 110.836C128.495 111.588 128.992 112.207 129.66 112.64L130.204 111.801L130.748 110.962C130.446 110.766 130.182 110.465 129.972 110.005L129.062 110.42ZM130.204 111.801L129.665 112.643C130.326 113.067 131.076 113.267 131.88 113.267V112.267V111.267C131.419 111.267 131.052 111.156 130.743 110.959L130.204 111.801ZM131.88 112.267V113.267C132.684 113.267 133.434 113.067 134.096 112.643L133.556 111.801L133.017 110.959C132.709 111.156 132.341 111.267 131.88 111.267V112.267ZM133.556 111.801L134.1 112.64C134.77 112.206 135.265 111.585 135.605 110.831L134.693 110.42L133.781 110.01C133.575 110.468 133.313 110.767 133.012 110.962L133.556 111.801ZM134.693 110.42L135.603 110.833C135.954 110.06 136.107 109.164 136.107 108.182H135.107H134.107C134.107 108.965 133.984 109.562 133.782 110.008L134.693 110.42Z" fill="#FF7F50" mask="url(#path-13-outside-1_2015_30)"/>
</svg>
